<?xml version="1.0" encoding="UTF-8"?>
<!DOCTYPE svg PUBLIC "-//W3C//DTD SVG 1.1//EN" "http://www.w3.org/Graphics/SVG/1.1/DTD/svg11.dtd">
<!-- Creator: CorelDRAW X7 -->
<svg xmlns="http://www.w3.org/2000/svg" xml:space="preserve" width="8.5in" height="11in" version="1.1" style="shape-rendering:geometricPrecision; text-rendering:geometricPrecision; image-rendering:optimizeQuality; fill-rule:evenodd; clip-rule:evenodd"
viewBox="0 0 8500 11000"
 xmlns:xlink="http://www.w3.org/1999/xlink">
 <defs>
  <style type="text/css">
   <![CDATA[
    .str0 {stroke:blue;stroke-width:3}
    .str1 {stroke:red;stroke-width:3;stroke-linejoin:bevel}
    .fil0 {fill:none}
   ]]>
  </style>
 </defs>
 <g id="Layer_x0020_1">
  <metadata id="CorelCorpID_0Corel-Layer"/>
  <rect class="fil0 str0" x="10" y="-1" width="8000" height="7000"/>
 </g>
 <g id="_0">
  <metadata id="CorelCorpID_1Corel-Layer"/>
  <path class="fil0 str1" d="M6352 3380c0,107 62,204 159,250"/>
  <path class="fil0 str1" d="M400 1332c-11,0 -21,4 -28,12 -8,7 -12,17 -12,27"/>
  <path class="fil0 str1" d="M360 4313c0,10 4,20 12,28 7,7 17,11 28,11"/>
  <line class="fil0 str1" x1="7960" y1="4609" x2="6938" y2= "6801" />
  <line class="fil0 str1" x1="6572" y1="6935" x2="3439" y2= "5474" />
  <path class="fil0 str1" d="M4059 174c0,-33 -27,-60 -59,-60 -33,0 -59,27 -59,60 0,32 26,59 59,59 32,0 59,-27 59,-59z"/>
  <line class="fil0 str1" x1="3322" y1="5449" x2="286" y2= "5449" />
  <path class="fil0 str1" d="M6164 245c0,-32 -26,-59 -59,-59 -32,0 -59,27 -59,59 0,33 27,59 59,59 33,0 59,-26 59,-59z"/>
  <path class="fil0 str1" d="M286 -1c-73,0 -143,29 -195,80 -52,52 -81,122 -81,195"/>
  <path class="fil0 str1" d="M6352 274c0,-73 -29,-143 -81,-195 -51,-51 -121,-80 -194,-80"/>
  <path class="fil0 str1" d="M10 5173c0,73 29,143 81,195 52,52 122,81 195,81"/>
  <path class="fil0 str1" d="M6572 6935c137,64 301,4 366,-134"/>
  <path class="fil0 str1" d="M7960 4609c31,-66 34,-142 9,-210 -25,-69 -76,-125 -142,-156"/>
  <path class="fil0 str1" d="M7808 4479c0,-33 -27,-59 -59,-59 -33,0 -59,26 -59,59 0,32 26,59 59,59 32,0 59,-27 59,-59z"/>
  <path class="fil0 str1" d="M3439 5474c-37,-17 -76,-25 -117,-25"/>
  <path class="fil0 str1" d="M6761 6724c0,-33 -26,-59 -59,-59 -33,0 -59,26 -59,59 0,32 26,59 59,59 33,0 59,-27 59,-59z"/>
  <path class="fil0 str1" d="M3481 5274c0,-33 -26,-60 -59,-60 -32,0 -59,27 -59,60 0,32 27,59 59,59 33,0 59,-27 59,-59z"/>
  <path class="fil0 str1" d="M316 5139c0,-32 -27,-59 -59,-59 -33,0 -59,27 -59,59 0,33 26,59 59,59 32,0 59,-26 59,-59z"/>
  <line class="fil0 str1" x1="6352" y1="274" x2="6352" y2= "3380" />
  <line class="fil0 str1" x1="10" y1="5173" x2="10" y2= "274" />
  <line class="fil0 str1" x1="286" y1="-1" x2="6077" y2= "-1" />
  <line class="fil0 str1" x1="360" y1="4313" x2="360" y2= "1371" />
  <line class="fil0 str1" x1="6511" y1="3630" x2="7827" y2= "4243" />
  <line class="fil0 str1" x1="6002" y1="1297" x2="6002" y2= "3869" />
  <path class="fil0 str1" d="M316 245c0,-32 -27,-59 -59,-59 -33,0 -59,27 -59,59 0,33 26,59 59,59 32,0 59,-26 59,-59z"/>
  <path class="fil0 str1" d="M5467 4277c-19,0 -35,13 -39,31 -4,19 5,37 22,45"/>
  <line class="fil0 str1" x1="5450" y1="4353" x2="5862" y2= "4545" />
  <path class="fil0 str1" d="M5862 4545c15,7 31,8 46,2 15,-5 27,-16 34,-31"/>
  <line class="fil0 str1" x1="5942" y1="4516" x2="6217" y2= "3927" />
  <path class="fil0 str1" d="M6270 3908c-10,-5 -21,-5 -31,-1 -10,3 -18,11 -22,20"/>
  <line class="fil0 str1" x1="6270" y1="3908" x2="7575" y2= "4516" />
  <path class="fil0 str1" d="M7594 4570c10,-20 1,-44 -19,-54"/>
  <line class="fil0 str1" x1="7594" y1="4570" x2="6669" y2= "6554" />
  <path class="fil0 str1" d="M6616 6574c9,4 20,5 30,1 10,-4 18,-11 23,-21"/>
  <line class="fil0 str1" x1="6616" y1="6574" x2="4631" y2= "5648" />
  <path class="fil0 str1" d="M4611 5595c-4,10 -5,21 -1,31 4,10 11,18 21,22"/>
  <line class="fil0 str1" x1="4611" y1="5595" x2="5186" y2= "4362" />
  <path class="fil0 str1" d="M5186 4362c9,-18 7,-40 -4,-57 -11,-17 -30,-28 -50,-28"/>
  <line class="fil0 str1" x1="5132" y1="4277" x2="4562" y2= "4277" />
  <path class="fil0 str1" d="M4562 4277c-16,0 -31,6 -43,18 -11,11 -17,26 -17,42"/>
  <line class="fil0 str1" x1="4502" y1="4337" x2="4502" y2= "4937" />
  <path class="fil0 str1" d="M4462 4977c22,0 40,-18 40,-40"/>
  <line class="fil0 str1" x1="4462" y1="4977" x2="3764" y2= "4977" />
  <path class="fil0 str1" d="M3727 4952c6,15 21,25 37,25"/>
  <path class="fil0 str1" d="M3727 4952c-9,-23 -31,-37 -55,-37"/>
  <line class="fil0 str1" x1="3672" y1="4915" x2="3062" y2= "4915" />
  <path class="fil0 str1" d="M3062 4915c-25,0 -47,14 -56,37"/>
  <path class="fil0 str1" d="M2969 4977c16,0 31,-10 37,-25"/>
  <line class="fil0 str1" x1="2969" y1="4977" x2="2312" y2= "4977" />
  <path class="fil0 str1" d="M2312 4977c-16,0 -31,6 -43,18 -11,11 -17,26 -17,42"/>
  <line class="fil0 str1" x1="2252" y1="5037" x2="2252" y2= "5062" />
  <path class="fil0 str1" d="M2212 5102c22,0 40,-18 40,-40"/>
  <line class="fil0 str1" x1="2212" y1="5102" x2="772" y2= "5102" />
  <path class="fil0 str1" d="M732 5062c0,11 4,21 11,28 8,8 18,12 29,12"/>
  <line class="fil0 str1" x1="732" y1="5062" x2="732" y2= "4412" />
  <path class="fil0 str1" d="M732 4412c0,-16 -7,-31 -18,-42 -11,-12 -26,-18 -42,-18"/>
  <line class="fil0 str1" x1="672" y1="4352" x2="400" y2= "4352" />
  <line class="fil0 str1" x1="400" y1="1332" x2="2172" y2= "1332" />
  <path class="fil0 str1" d="M2172 1332c33,0 60,-27 60,-60"/>
  <line class="fil0 str1" x1="2232" y1="1272" x2="2232" y2= "1247" />
  <path class="fil0 str1" d="M2272 1207c-11,0 -21,4 -29,12 -7,7 -11,17 -11,28"/>
  <line class="fil0 str1" x1="2272" y1="1207" x2="2922" y2= "1207" />
  <path class="fil0 str1" d="M2922 1207c24,0 46,-15 55,-37"/>
  <path class="fil0 str1" d="M3014 1145c-16,0 -31,9 -37,25"/>
  <line class="fil0 str1" x1="3014" y1="1145" x2="3719" y2= "1145" />
  <path class="fil0 str1" d="M3756 1170c-6,-16 -21,-25 -37,-25"/>
  <path class="fil0 str1" d="M3756 1170c9,22 31,37 56,37"/>
  <line class="fil0 str1" x1="3812" y1="1207" x2="4475" y2= "1207" />
  <path class="fil0 str1" d="M4510 1227c-7,-12 -21,-20 -35,-20"/>
  <path class="fil0 str1" d="M4510 1227c10,19 30,30 52,30"/>
  <line class="fil0 str1" x1="4562" y1="1257" x2="5962" y2= "1257" />
  <path class="fil0 str1" d="M6002 1297c0,-11 -5,-21 -12,-28 -8,-8 -18,-12 -28,-12"/>
  <line class="fil0 str1" x1="6002" y1="1297" x2="6002" y2= "4237" />
  <path class="fil0 str1" d="M5962 4277c22,0 40,-18 40,-40"/>
  <line class="fil0 str1" x1="5962" y1="4277" x2="5467" y2= "4277" />
 </g>
</svg>
